<svg width="77" height="57" viewBox="0 0 77 57" fill="none" xmlns="http://www.w3.org/2000/svg">
<g clip-path="url(#clip0_511_159)">
<g clip-path="url(#clip1_511_159)">
<path fill-rule="evenodd" clip-rule="evenodd" d="M75.2021 46.6926C74.9648 46.0331 74.341 45.5932 73.6409 45.5932H71.3424V7.89146C71.3424 3.54031 67.8112 0 63.4712 0H38.0045H12.5378C8.19779 0 4.66658 3.54031 4.66658 7.89146V45.5924H2.36884C1.66957 45.5924 1.04495 46.0323 0.807717 46.6918C0.614442 47.2299 -1.02301 52.0376 1.02338 54.9558C1.67704 55.8881 2.97107 57 5.42641 57H38.0045H70.5834C73.0387 57 74.3336 55.8889 74.9864 54.9567C77.0328 52.0384 75.3953 47.2307 75.2021 46.6926ZM7.98461 7.89146C7.98461 5.37408 10.0269 3.32657 12.5378 3.32657H38.0045H63.4712C65.9813 3.32657 68.0243 5.37408 68.0243 7.89146V45.5924H38.0045H7.98461V7.89146ZM32.1473 53.6743H38.0045H43.8608V48.9198H38.0045H32.1473V53.6743ZM3.73919 53.0464C3.10379 52.1432 3.29955 50.2836 3.61559 48.9198H6.32559H28.8293V53.6743H5.42641C4.18363 53.6743 3.84992 53.2028 3.7398 53.0472L3.73919 53.0464ZM70.5842 53.6743C71.8309 53.6743 72.1511 53.2169 72.2722 53.0439C72.901 52.1457 72.7036 50.2728 72.3925 48.9198H69.6834H47.1788V53.6743H70.5842Z" fill="#FF5A66"/>
<path d="M57.8022 9H64.2076C65.1997 9 66.0049 8.328 66.0049 7.5C66.0049 6.672 65.1997 6 64.2076 6H57.8022C56.8101 6 56.0049 6.672 56.0049 7.5C56.0049 8.328 56.8101 9 57.8022 9Z" fill="#EA075F"/>
<path d="M47.6618 19.4863H52.4697C53.3849 19.4863 54.1276 18.7395 54.1276 17.8193C54.1276 16.8991 53.3849 16.1523 52.4697 16.1523H47.6618C46.7467 16.1523 46.0039 16.8991 46.0039 17.8193C46.0039 18.7395 46.7458 19.4863 47.6618 19.4863Z" fill="#FF5A66"/>
<path d="M47.6618 25.3066H61.2981C62.2132 25.3066 62.956 24.5598 62.956 23.6396C62.956 22.7195 62.2132 21.9727 61.2981 21.9727H47.6618C46.7467 21.9727 46.0039 22.7195 46.0039 23.6396C46.0039 24.5598 46.7458 25.3066 47.6618 25.3066Z" fill="#FF5A66"/>
<path d="M47.6618 31.1259H61.2981C62.2132 31.1259 62.956 30.3791 62.956 29.459C62.956 28.5388 62.2132 27.792 61.2981 27.792H47.6618C46.7467 27.792 46.0039 28.5388 46.0039 29.459C46.0039 30.3791 46.7458 31.1259 47.6618 31.1259Z" fill="#FF5A66"/>
<path d="M47.6618 36.9458H61.2981C62.2132 36.9458 62.956 36.199 62.956 35.2788C62.956 34.3586 62.2132 33.6118 61.2981 33.6118H47.6618C46.7467 33.6118 46.0039 34.3586 46.0039 35.2788C46.0039 36.199 46.7458 36.9458 47.6618 36.9458Z" fill="#FF5A66"/>
<path fill-rule="evenodd" clip-rule="evenodd" d="M27.0049 10C35.276 10 42.0049 16.7289 42.0049 25C42.0049 33.2711 35.276 40 27.0049 40C18.7338 40 12.0049 33.2711 12.0049 25C12.0049 16.7289 18.7338 10 27.0049 10ZM15.3685 25C15.3685 31.4161 20.5888 36.6364 27.0049 36.6364C33.421 36.6364 38.6413 31.4161 38.6413 25C38.6413 18.5839 33.421 13.3636 27.0049 13.3636C20.5888 13.3636 15.3685 18.5839 15.3685 25Z" fill="#F4313F"/>
<path d="M35.517 19.5051C34.868 18.8316 33.8129 18.8316 33.1639 19.5051L24.8483 28.1223L21.8462 25.0122C21.1963 24.3396 20.143 24.3388 19.4923 25.0122C18.8424 25.6856 18.8424 26.7772 19.4923 27.4515L24.8474 33L35.5162 21.9443C36.1677 21.2701 36.1677 20.1785 35.517 19.5051Z" fill="#F4313F"/>
</g>
</g>
<defs>
<clipPath id="clip0_511_159">
<rect width="76.01" height="57" fill="white"/>
</clipPath>
<clipPath id="clip1_511_159">
<rect width="76" height="57" fill="white" transform="translate(0.00488281)"/>
</clipPath>
</defs>
</svg>
