<svg width="65" height="65" viewBox="0 0 65 65" fill="none" xmlns="http://www.w3.org/2000/svg">
<g clip-path="url(#clip0_511_106)">
<g clip-path="url(#clip1_511_106)">
<path d="M32.4946 63.6546C49.7035 63.6546 63.6541 49.704 63.6541 32.495C63.6541 15.2861 49.7035 1.33545 32.4946 1.33545C15.2856 1.33545 1.33496 15.2861 1.33496 32.495C1.33496 49.704 15.2856 63.6546 32.4946 63.6546Z" stroke="#FF717B" stroke-width="2.67082"/>
<path d="M42.5166 24.4687C40.1791 24.4687 38.2666 23.8312 38.2666 23.052V24.4687C38.2666 25.2478 40.1791 25.8853 42.5166 25.8853C44.8541 25.8853 46.7666 25.2478 46.7666 24.4687V23.052C46.7666 23.8312 44.8541 24.4687 42.5166 24.4687Z" fill="#F4313F"/>
<path d="M42.5166 22.3437C40.1791 22.3437 38.2666 21.7062 38.2666 20.927V22.3437C38.2666 23.1228 40.1791 23.7603 42.5166 23.7603C44.8541 23.7603 46.7666 23.1228 46.7666 22.3437V20.927C46.7666 21.7062 44.8541 22.3437 42.5166 22.3437ZM42.5166 26.5937C40.1791 26.5937 38.2666 25.9562 38.2666 25.177V26.5937C38.2666 27.3728 40.1791 28.0103 42.5166 28.0103C44.8541 28.0103 46.7666 27.3728 46.7666 26.5937V25.177C46.7666 25.9562 44.8541 26.5937 42.5166 26.5937Z" fill="#F4313F"/>
<path d="M42.5166 28.7187C40.1791 28.7187 38.2666 28.0812 38.2666 27.302V28.7187C38.2666 29.4978 40.1791 30.1353 42.5166 30.1353C44.8541 30.1353 46.7666 29.4978 46.7666 28.7187V27.302C46.7666 28.0812 44.8541 28.7187 42.5166 28.7187Z" fill="#F4313F"/>
<path d="M42.5166 30.8437C40.1791 30.8437 38.2666 30.2062 38.2666 29.427V30.8437C38.2666 31.6228 40.1791 32.2603 42.5166 32.2603C44.8541 32.2603 46.7666 31.6228 46.7666 30.8437V29.427C46.7666 30.2062 44.8541 30.8437 42.5166 30.8437Z" fill="#F4313F"/>
<path d="M42.5166 32.9687C40.1791 32.9687 38.2666 32.3312 38.2666 31.552V32.9687C38.2666 33.7478 40.1791 34.3853 42.5166 34.3853C44.8541 34.3853 46.7666 33.7478 46.7666 32.9687V31.552C46.7666 32.3312 44.8541 32.9687 42.5166 32.9687Z" fill="#F4313F"/>
<path d="M42.5166 35.0937C40.1791 35.0937 38.2666 34.4562 38.2666 33.677V35.0937C38.2666 35.8728 40.1791 36.5103 42.5166 36.5103C44.8541 36.5103 46.7666 35.8728 46.7666 35.0937V33.677C46.7666 34.4562 44.8541 35.0937 42.5166 35.0937Z" fill="#F4313F"/>
<path d="M42.5166 37.2187C40.1791 37.2187 38.2666 36.5812 38.2666 35.802V37.2187C38.2666 37.9978 40.1791 38.6353 42.5166 38.6353C44.8541 38.6353 46.7666 37.9978 46.7666 37.2187V35.802C46.7666 36.5812 44.8541 37.2187 42.5166 37.2187Z" fill="#F4313F"/>
<path d="M42.5166 39.3437C40.1791 39.3437 38.2666 38.7062 38.2666 37.927V39.3437C38.2666 40.1228 40.1791 40.7603 42.5166 40.7603C44.8541 40.7603 46.7666 40.1228 46.7666 39.3437V37.927C46.7666 38.7062 44.8541 39.3437 42.5166 39.3437Z" fill="#F4313F"/>
<path d="M42.5166 41.4687C40.1791 41.4687 38.2666 40.8312 38.2666 40.052V41.4687C38.2666 42.2478 40.1791 42.8853 42.5166 42.8853C44.8541 42.8853 46.7666 42.2478 46.7666 41.4687V40.052C46.7666 40.8312 44.8541 41.4687 42.5166 41.4687Z" fill="#F4313F"/>
<path d="M42.5166 43.5937C40.1791 43.5937 38.2666 42.9562 38.2666 42.177V43.5937C38.2666 44.3728 40.1791 45.0103 42.5166 45.0103C44.8541 45.0103 46.7666 44.3728 46.7666 43.5937V42.177C46.7666 42.9562 44.8541 43.5937 42.5166 43.5937Z" fill="#F4313F"/>
<path d="M42.5166 22.3436C44.8638 22.3436 46.7666 21.7093 46.7666 20.9269C46.7666 20.1445 44.8638 19.5103 42.5166 19.5103C40.1694 19.5103 38.2666 20.1445 38.2666 20.9269C38.2666 21.7093 40.1694 22.3436 42.5166 22.3436Z" fill="#FF848D"/>
<path d="M42.5166 23.7603C40.5333 23.7603 38.9041 23.3353 38.4083 22.6978C38.3374 22.8394 38.2666 22.9103 38.2666 23.0519C38.2666 23.8311 40.1791 24.4686 42.5166 24.4686C44.8541 24.4686 46.7666 23.8311 46.7666 23.0519C46.7666 22.9103 46.6958 22.8394 46.6249 22.6978C46.1291 23.3353 44.4999 23.7603 42.5166 23.7603ZM42.5166 25.8853C40.5333 25.8853 38.9041 25.4603 38.4083 24.8228C38.3374 24.9644 38.2666 25.0353 38.2666 25.1769C38.2666 25.9561 40.1791 26.5936 42.5166 26.5936C44.8541 26.5936 46.7666 25.9561 46.7666 25.1769C46.7666 25.0353 46.6958 24.9644 46.6249 24.8228C46.1291 25.4603 44.4999 25.8853 42.5166 25.8853ZM42.5166 28.0103C40.5333 28.0103 38.9041 27.5853 38.4083 26.9478C38.3374 27.0894 38.2666 27.1603 38.2666 27.3019C38.2666 28.0811 40.1791 28.7186 42.5166 28.7186C44.8541 28.7186 46.7666 28.0811 46.7666 27.3019C46.7666 27.1603 46.6958 27.0894 46.6249 26.9478C46.1291 27.5853 44.4999 28.0103 42.5166 28.0103ZM42.5166 30.1353C40.5333 30.1353 38.9041 29.7103 38.4083 29.0728C38.3374 29.2144 38.2666 29.2853 38.2666 29.4269C38.2666 30.2061 40.1791 30.8436 42.5166 30.8436C44.8541 30.8436 46.7666 30.2061 46.7666 29.4269C46.7666 29.2853 46.6958 29.2144 46.6249 29.0728C46.1291 29.7103 44.4999 30.1353 42.5166 30.1353ZM42.5166 32.2603C40.5333 32.2603 38.9041 31.8353 38.4083 31.1978C38.3374 31.3394 38.2666 31.4103 38.2666 31.5519C38.2666 32.3311 40.1791 32.9686 42.5166 32.9686C44.8541 32.9686 46.7666 32.3311 46.7666 31.5519C46.7666 31.4103 46.6958 31.3394 46.6249 31.1978C46.1291 31.8353 44.4999 32.2603 42.5166 32.2603ZM42.5166 34.3853C40.5333 34.3853 38.9041 33.9603 38.4083 33.3228C38.3374 33.4644 38.2666 33.5353 38.2666 33.6769C38.2666 34.4561 40.1791 35.0936 42.5166 35.0936C44.8541 35.0936 46.7666 34.4561 46.7666 33.6769C46.7666 33.5353 46.6958 33.4644 46.6249 33.3228C46.1291 33.9603 44.4999 34.3853 42.5166 34.3853ZM42.5166 36.5103C40.5333 36.5103 38.9041 36.0853 38.4083 35.4478C38.3374 35.5894 38.2666 35.6603 38.2666 35.8019C38.2666 36.5811 40.1791 37.2186 42.5166 37.2186C44.8541 37.2186 46.7666 36.5811 46.7666 35.8019C46.7666 35.6603 46.6958 35.5894 46.6249 35.4478C46.1291 36.0853 44.4999 36.5103 42.5166 36.5103ZM42.5166 38.6353C40.5333 38.6353 38.9041 38.2103 38.4083 37.5728C38.3374 37.7144 38.2666 37.7853 38.2666 37.9269C38.2666 38.7061 40.1791 39.3436 42.5166 39.3436C44.8541 39.3436 46.7666 38.7061 46.7666 37.9269C46.7666 37.7853 46.6958 37.7144 46.6249 37.5728C46.1291 38.2103 44.4999 38.6353 42.5166 38.6353ZM42.5166 40.7603C40.5333 40.7603 38.9041 40.3353 38.4083 39.6978C38.3374 39.8394 38.2666 39.9103 38.2666 40.0519C38.2666 40.8311 40.1791 41.4686 42.5166 41.4686C44.8541 41.4686 46.7666 40.8311 46.7666 40.0519C46.7666 39.9103 46.6958 39.8394 46.6249 39.6978C46.1291 40.3353 44.4999 40.7603 42.5166 40.7603ZM42.5166 42.8853C40.5333 42.8853 38.9041 42.4603 38.4083 41.8228C38.3374 41.9644 38.2666 42.0353 38.2666 42.1769C38.2666 42.9561 40.1791 43.5936 42.5166 43.5936C44.8541 43.5936 46.7666 42.9561 46.7666 42.1769C46.7666 42.0353 46.6958 41.9644 46.6249 41.8228C46.1291 42.4603 44.4999 42.8853 42.5166 42.8853Z" fill="#FF848D"/>
<path d="M22.6826 28.7187C20.3451 28.7187 18.4326 28.0812 18.4326 27.302V28.7187C18.4326 29.4978 20.3451 30.1353 22.6826 30.1353C25.0201 30.1353 26.9326 29.4978 26.9326 28.7187V27.302C26.9326 28.0812 25.0201 28.7187 22.6826 28.7187Z" fill="#F4313F"/>
<path d="M22.6826 26.5937C20.3451 26.5937 18.4326 25.9562 18.4326 25.177V26.5937C18.4326 27.3728 20.3451 28.0103 22.6826 28.0103C25.0201 28.0103 26.9326 27.3728 26.9326 26.5937V25.177C26.9326 25.9562 25.0201 26.5937 22.6826 26.5937ZM22.6826 30.8437C20.3451 30.8437 18.4326 30.2062 18.4326 29.427V30.8437C18.4326 31.6228 20.3451 32.2603 22.6826 32.2603C25.0201 32.2603 26.9326 31.6228 26.9326 30.8437V29.427C26.9326 30.2062 25.0201 30.8437 22.6826 30.8437Z" fill="#F4313F"/>
<path d="M22.6826 32.9687C20.3451 32.9687 18.4326 32.3312 18.4326 31.552V32.9687C18.4326 33.7478 20.3451 34.3853 22.6826 34.3853C25.0201 34.3853 26.9326 33.7478 26.9326 32.9687V31.552C26.9326 32.3312 25.0201 32.9687 22.6826 32.9687Z" fill="#F4313F"/>
<path d="M22.6826 35.0937C20.3451 35.0937 18.4326 34.4562 18.4326 33.677V35.0937C18.4326 35.8728 20.3451 36.5103 22.6826 36.5103C25.0201 36.5103 26.9326 35.8728 26.9326 35.0937V33.677C26.9326 34.4562 25.0201 35.0937 22.6826 35.0937Z" fill="#F4313F"/>
<path d="M22.6826 37.2187C20.3451 37.2187 18.4326 36.5812 18.4326 35.802V37.2187C18.4326 37.9978 20.3451 38.6353 22.6826 38.6353C25.0201 38.6353 26.9326 37.9978 26.9326 37.2187V35.802C26.9326 36.5812 25.0201 37.2187 22.6826 37.2187Z" fill="#F4313F"/>
<path d="M22.6826 39.3437C20.3451 39.3437 18.4326 38.7062 18.4326 37.927V39.3437C18.4326 40.1228 20.3451 40.7603 22.6826 40.7603C25.0201 40.7603 26.9326 40.1228 26.9326 39.3437V37.927C26.9326 38.7062 25.0201 39.3437 22.6826 39.3437Z" fill="#F4313F"/>
<path d="M22.6826 41.4687C20.3451 41.4687 18.4326 40.8312 18.4326 40.052V41.4687C18.4326 42.2478 20.3451 42.8853 22.6826 42.8853C25.0201 42.8853 26.9326 42.2478 26.9326 41.4687V40.052C26.9326 40.8312 25.0201 41.4687 22.6826 41.4687Z" fill="#F4313F"/>
<path d="M22.6826 43.5937C20.3451 43.5937 18.4326 42.9562 18.4326 42.177V43.5937C18.4326 44.3728 20.3451 45.0103 22.6826 45.0103C25.0201 45.0103 26.9326 44.3728 26.9326 43.5937V42.177C26.9326 42.9562 25.0201 43.5937 22.6826 43.5937Z" fill="#F4313F"/>
<path d="M22.6826 26.5936C25.0298 26.5936 26.9326 25.9593 26.9326 25.1769C26.9326 24.3945 25.0298 23.7603 22.6826 23.7603C20.3354 23.7603 18.4326 24.3945 18.4326 25.1769C18.4326 25.9593 20.3354 26.5936 22.6826 26.5936Z" fill="#FF848D"/>
<path d="M22.6826 28.0103C20.6993 28.0103 19.0701 27.5853 18.5743 26.9478C18.5035 27.0894 18.4326 27.1603 18.4326 27.3019C18.4326 28.0811 20.3451 28.7186 22.6826 28.7186C25.0201 28.7186 26.9326 28.0811 26.9326 27.3019C26.9326 27.1603 26.8618 27.0894 26.791 26.9478C26.2951 27.5853 24.666 28.0103 22.6826 28.0103ZM22.6826 30.1353C20.6993 30.1353 19.0701 29.7103 18.5743 29.0728C18.5035 29.2144 18.4326 29.2853 18.4326 29.4269C18.4326 30.2061 20.3451 30.8436 22.6826 30.8436C25.0201 30.8436 26.9326 30.2061 26.9326 29.4269C26.9326 29.2853 26.8618 29.2144 26.791 29.0728C26.2951 29.7103 24.666 30.1353 22.6826 30.1353ZM22.6826 32.2603C20.6993 32.2603 19.0701 31.8353 18.5743 31.1978C18.5035 31.3394 18.4326 31.4103 18.4326 31.5519C18.4326 32.3311 20.3451 32.9686 22.6826 32.9686C25.0201 32.9686 26.9326 32.3311 26.9326 31.5519C26.9326 31.4103 26.8618 31.3394 26.791 31.1978C26.2951 31.8353 24.666 32.2603 22.6826 32.2603ZM22.6826 34.3853C20.6993 34.3853 19.0701 33.9603 18.5743 33.3228C18.5035 33.4644 18.4326 33.5353 18.4326 33.6769C18.4326 34.4561 20.3451 35.0936 22.6826 35.0936C25.0201 35.0936 26.9326 34.4561 26.9326 33.6769C26.9326 33.5353 26.8618 33.4644 26.791 33.3228C26.2951 33.9603 24.666 34.3853 22.6826 34.3853ZM22.6826 36.5103C20.6993 36.5103 19.0701 36.0853 18.5743 35.4478C18.5035 35.5894 18.4326 35.6603 18.4326 35.8019C18.4326 36.5811 20.3451 37.2186 22.6826 37.2186C25.0201 37.2186 26.9326 36.5811 26.9326 35.8019C26.9326 35.6603 26.8618 35.5894 26.791 35.4478C26.2951 36.0853 24.666 36.5103 22.6826 36.5103ZM22.6826 38.6353C20.6993 38.6353 19.0701 38.2103 18.5743 37.5728C18.5035 37.7144 18.4326 37.7853 18.4326 37.9269C18.4326 38.7061 20.3451 39.3436 22.6826 39.3436C25.0201 39.3436 26.9326 38.7061 26.9326 37.9269C26.9326 37.7853 26.8618 37.7144 26.791 37.5728C26.2951 38.2103 24.666 38.6353 22.6826 38.6353ZM22.6826 40.7603C20.6993 40.7603 19.0701 40.3353 18.5743 39.6978C18.5035 39.8394 18.4326 39.9103 18.4326 40.0519C18.4326 40.8311 20.3451 41.4686 22.6826 41.4686C25.0201 41.4686 26.9326 40.8311 26.9326 40.0519C26.9326 39.9103 26.8618 39.8394 26.791 39.6978C26.2951 40.3353 24.666 40.7603 22.6826 40.7603ZM22.6826 42.8853C20.6993 42.8853 19.0701 42.4603 18.5743 41.8228C18.5035 41.9644 18.4326 42.0353 18.4326 42.1769C18.4326 42.9561 20.3451 43.5936 22.6826 43.5936C25.0201 43.5936 26.9326 42.9561 26.9326 42.1769C26.9326 42.0353 26.8618 41.9644 26.791 41.8228C26.2951 42.4603 24.666 42.8853 22.6826 42.8853Z" fill="#FF848D"/>
<path d="M32.5996 35.0936C30.2621 35.0936 28.3496 34.4561 28.3496 33.6769V35.0936C28.3496 35.8728 30.2621 36.5103 32.5996 36.5103C34.9371 36.5103 36.8496 35.8728 36.8496 35.0936V33.6769C36.8496 34.4561 34.9371 35.0936 32.5996 35.0936Z" fill="#F4313F"/>
<path d="M32.5996 32.9686C30.2621 32.9686 28.3496 32.3311 28.3496 31.5519V32.9686C28.3496 33.7478 30.2621 34.3853 32.5996 34.3853C34.9371 34.3853 36.8496 33.7478 36.8496 32.9686V31.5519C36.8496 32.3311 34.9371 32.9686 32.5996 32.9686ZM32.5996 37.2186C30.2621 37.2186 28.3496 36.5811 28.3496 35.8019V37.2186C28.3496 37.9978 30.2621 38.6353 32.5996 38.6353C34.9371 38.6353 36.8496 37.9978 36.8496 37.2186V35.8019C36.8496 36.5811 34.9371 37.2186 32.5996 37.2186Z" fill="#F4313F"/>
<path d="M32.5996 39.3436C30.2621 39.3436 28.3496 38.7061 28.3496 37.9269V39.3436C28.3496 40.1228 30.2621 40.7603 32.5996 40.7603C34.9371 40.7603 36.8496 40.1228 36.8496 39.3436V37.9269C36.8496 38.7061 34.9371 39.3436 32.5996 39.3436Z" fill="#F4313F"/>
<path d="M32.5996 41.4686C30.2621 41.4686 28.3496 40.8311 28.3496 40.0519V41.4686C28.3496 42.2478 30.2621 42.8853 32.5996 42.8853C34.9371 42.8853 36.8496 42.2478 36.8496 41.4686V40.0519C36.8496 40.8311 34.9371 41.4686 32.5996 41.4686Z" fill="#F4313F"/>
<path d="M32.5996 43.5936C30.2621 43.5936 28.3496 42.9561 28.3496 42.1769V43.5936C28.3496 44.3728 30.2621 45.0103 32.5996 45.0103C34.9371 45.0103 36.8496 44.3728 36.8496 43.5936V42.1769C36.8496 42.9561 34.9371 43.5936 32.5996 43.5936Z" fill="#F4313F"/>
<path d="M32.5996 32.9686C34.9468 32.9686 36.8496 32.3343 36.8496 31.5519C36.8496 30.7695 34.9468 30.1353 32.5996 30.1353C30.2524 30.1353 28.3496 30.7695 28.3496 31.5519C28.3496 32.3343 30.2524 32.9686 32.5996 32.9686Z" fill="#FF848D"/>
<path d="M32.5996 34.3853C30.6163 34.3853 28.9871 33.9603 28.4913 33.3228C28.4204 33.4644 28.3496 33.5353 28.3496 33.6769C28.3496 34.4561 30.2621 35.0936 32.5996 35.0936C34.9371 35.0936 36.8496 34.4561 36.8496 33.6769C36.8496 33.5353 36.7788 33.4644 36.7079 33.3228C36.2121 33.9603 34.5829 34.3853 32.5996 34.3853ZM32.5996 36.5103C30.6163 36.5103 28.9871 36.0853 28.4913 35.4478C28.4204 35.5894 28.3496 35.6603 28.3496 35.8019C28.3496 36.5811 30.2621 37.2186 32.5996 37.2186C34.9371 37.2186 36.8496 36.5811 36.8496 35.8019C36.8496 35.6603 36.7788 35.5894 36.7079 35.4478C36.2121 36.0853 34.5829 36.5103 32.5996 36.5103ZM32.5996 38.6353C30.6163 38.6353 28.9871 38.2103 28.4913 37.5728C28.4204 37.7144 28.3496 37.7853 28.3496 37.9269C28.3496 38.7061 30.2621 39.3436 32.5996 39.3436C34.9371 39.3436 36.8496 38.7061 36.8496 37.9269C36.8496 37.7853 36.7788 37.7144 36.7079 37.5728C36.2121 38.2103 34.5829 38.6353 32.5996 38.6353ZM32.5996 40.7603C30.6163 40.7603 28.9871 40.3353 28.4913 39.6978C28.4204 39.8394 28.3496 39.9103 28.3496 40.0519C28.3496 40.8311 30.2621 41.4686 32.5996 41.4686C34.9371 41.4686 36.8496 40.8311 36.8496 40.0519C36.8496 39.9103 36.7788 39.8394 36.7079 39.6978C36.2121 40.3353 34.5829 40.7603 32.5996 40.7603ZM32.5996 42.8853C30.6163 42.8853 28.9871 42.4603 28.4913 41.8228C28.4204 41.9644 28.3496 42.0353 28.3496 42.1769C28.3496 42.9561 30.2621 43.5936 32.5996 43.5936C34.9371 43.5936 36.8496 42.9561 36.8496 42.1769C36.8496 42.0353 36.7788 41.9644 36.7079 41.8228C36.2121 42.4603 34.5829 42.8853 32.5996 42.8853Z" fill="#FF848D"/>
</g>
</g>
<defs>
<clipPath id="clip0_511_106">
<rect width="64.99" height="64.99" fill="white"/>
</clipPath>
<clipPath id="clip1_511_106">
<rect width="64.99" height="64.99" fill="white"/>
</clipPath>
</defs>
</svg>
