<svg width="28" height="30" viewBox="0 0 28 30" fill="none" xmlns="http://www.w3.org/2000/svg">
<circle cx="14.5" cy="14.5" r="13.5" fill="#F4313F"/>
<path d="M11.968 17.52C12.992 16.6347 13.7973 15.9093 14.384 15.344C14.9813 14.768 15.4773 14.1707 15.872 13.552C16.2667 12.9333 16.464 12.3147 16.464 11.696C16.464 11.056 16.3093 10.5547 16 10.192C15.7013 9.82933 15.2267 9.648 14.576 9.648C13.9467 9.648 13.456 9.85067 13.104 10.256C12.7627 10.6507 12.5813 11.184 12.56 11.856H10.8C10.832 10.64 11.1947 9.712 11.888 9.072C12.592 8.42133 13.4827 8.096 14.56 8.096C15.7227 8.096 16.6293 8.416 17.28 9.056C17.9413 9.696 18.272 10.5493 18.272 11.616C18.272 12.384 18.0747 13.1253 17.68 13.84C17.296 14.544 16.832 15.1787 16.288 15.744C15.7547 16.2987 15.072 16.944 14.24 17.68L13.52 18.32H18.592V19.84H10.816V18.512L11.968 17.52Z" fill="white"/>
</svg>
