<svg width="60" height="49" viewBox="0 0 60 49" fill="none" xmlns="http://www.w3.org/2000/svg">
<g clip-path="url(#clip0_511_101)">
<g clip-path="url(#clip1_511_101)">
<path d="M59.115 26.3279C59.115 20.7192 54.5271 16.1003 48.8088 16.1003C48.5428 16.1003 48.2768 16.1003 48.0109 16.1003C48.1439 15.3744 48.2104 14.5826 48.2104 13.7908C48.2104 6.20257 41.9602 0 34.3136 0C27.5315 0 21.9462 4.7509 20.6828 11.0854C18.6216 9.89769 16.2279 9.2379 13.7677 9.2379C6.18764 9.2379 0.00390625 15.3744 0.00390625 22.8967C0.00390625 29.5612 4.79131 35.2358 11.4405 36.3576H11.6399C12.3049 36.3576 12.8368 35.8957 12.9698 35.2358C13.1028 34.51 12.6374 33.8502 11.9059 33.7182C6.58658 32.7945 2.73006 28.2415 2.73006 22.8967C2.73006 16.8261 7.71694 11.8773 13.8342 11.8773C16.4274 11.8773 18.9541 12.8011 20.9488 14.4506C21.6137 15.0446 22.9435 14.8465 23.143 13.4609C23.3425 7.3903 28.2629 2.63939 34.3801 2.63939C40.5639 2.63939 45.6172 7.65424 45.6172 13.7908C45.6172 15.0446 45.4177 16.2322 45.0188 17.354C44.7528 18.2118 45.4177 19.3335 46.6811 19.0696C47.4125 18.8716 48.1439 18.7397 48.8753 18.7397C53.0643 18.7397 56.5218 22.1709 56.5218 26.3279C56.5218 30.4849 53.1308 33.9162 48.8753 33.9162H46.3487C45.6172 33.9162 45.0188 34.51 45.0188 35.2358C45.0188 35.9617 45.6172 36.5556 46.3487 36.5556H48.8753C54.5271 36.5556 59.115 32.0026 59.115 26.3279Z" fill="#F4313F"/>
<path fill-rule="evenodd" clip-rule="evenodd" d="M16.3491 35.7711C16.3491 28.4454 22.4764 22.5586 29.9503 22.5586C37.4241 22.5586 43.5514 28.5108 43.5514 35.7711C43.5514 43.0314 37.4915 48.9836 29.9503 48.9836C22.409 48.9836 16.3491 43.0968 16.3491 35.7711ZM19.0424 35.7711C19.0424 41.5925 23.9577 46.3673 29.9503 46.3673C35.9428 46.3673 40.8581 41.5925 40.8581 35.7711C40.8581 29.9497 35.9428 25.175 29.9503 25.175C23.9577 25.175 19.0424 29.9497 19.0424 35.7711Z" fill="#F4313F"/>
<path d="M35.3369 30.5383L27.459 38.1911L24.5638 35.3785C24.0251 34.8552 23.2171 34.8552 22.6784 35.3785C22.1397 35.9018 22.1397 36.6867 22.6784 37.21L27.5263 41.9194L37.2895 32.4352C37.8282 31.9119 37.8282 31.127 37.2895 30.6037C36.7508 30.0805 35.8755 30.0805 35.3369 30.5383Z" fill="#F4313F"/>
</g>
</g>
<defs>
<clipPath id="clip0_511_101">
<rect width="59.1189" height="49" fill="white"/>
</clipPath>
<clipPath id="clip1_511_101">
<rect width="59.1111" height="49" fill="white" transform="translate(0.00390625)"/>
</clipPath>
</defs>
</svg>
