<svg width="28" height="30" viewBox="0 0 28 30" fill="none" xmlns="http://www.w3.org/2000/svg">
<circle cx="14.5" cy="14.5" r="13.5" fill="#F4313F"/>
<path d="M9.928 12.216C9.992 11.224 10.3707 10.4507 11.064 9.896C11.768 9.34133 12.664 9.064 13.752 9.064C14.4987 9.064 15.144 9.19733 15.688 9.464C16.232 9.73067 16.6427 10.0933 16.92 10.552C17.1973 11.0107 17.336 11.528 17.336 12.104C17.336 12.7653 17.16 13.3307 16.808 13.8C16.456 14.2693 16.0347 14.584 15.544 14.744V14.808C16.1733 15 16.664 15.352 17.016 15.864C17.368 16.3653 17.544 17.0107 17.544 17.8C17.544 18.4293 17.4 18.9893 17.112 19.48C16.824 19.9707 16.3973 20.36 15.832 20.648C15.2667 20.9253 14.5893 21.064 13.8 21.064C12.648 21.064 11.6987 20.7707 10.952 20.184C10.216 19.5867 9.82133 18.7333 9.768 17.624H11.528C11.5707 18.1893 11.7893 18.6533 12.184 19.016C12.5787 19.368 13.112 19.544 13.784 19.544C14.4347 19.544 14.936 19.368 15.288 19.016C15.64 18.6533 15.816 18.1893 15.816 17.624C15.816 16.8773 15.576 16.3493 15.096 16.04C14.6267 15.72 13.9013 15.56 12.92 15.56H12.504V14.056H12.936C13.8 14.0453 14.456 13.9013 14.904 13.624C15.3627 13.3467 15.592 12.9093 15.592 12.312C15.592 11.8 15.4267 11.3947 15.096 11.096C14.7653 10.7867 14.296 10.632 13.688 10.632C13.0907 10.632 12.6267 10.7867 12.296 11.096C11.9653 11.3947 11.768 11.768 11.704 12.216H9.928Z" fill="white"/>
</svg>
