<svg width="66" height="66" viewBox="0 0 66 66" fill="none" xmlns="http://www.w3.org/2000/svg">
<path fill-rule="evenodd" clip-rule="evenodd" d="M41.8168 21.3881L45.0193 24.4991C49.7234 29.072 52.0771 31.3568 52.0771 34.1958C52.0771 37.0365 49.7234 39.3212 45.0176 43.8925C40.3118 48.4671 37.9598 50.7502 35.0355 50.7502C32.113 50.7502 29.7592 48.4637 25.0535 43.8925L21.8509 40.7815C19.1472 38.155 17.7944 36.8427 17.2922 35.1376C16.7882 33.4325 17.2187 31.622 18.0797 28.0028L18.5749 25.9152C19.2977 22.8688 19.6599 21.3456 20.7327 20.3019C21.8072 19.2598 23.3752 18.9079 26.5112 18.2058L28.6602 17.723C32.3878 16.8883 34.2498 16.4701 36.005 16.958C37.7603 17.4476 39.1131 18.7617 41.8168 21.3881ZM33.0843 37.7079C31.9065 36.5656 31.9153 34.9234 32.6205 33.6229C32.4459 33.3779 32.3652 33.0813 32.3923 32.7845C32.4194 32.4877 32.5526 32.2095 32.7689 31.9982C32.9852 31.7869 33.2708 31.6559 33.5761 31.6278C33.8815 31.5998 34.1873 31.6765 34.4405 31.8447C35.0355 31.5387 35.6883 31.3755 36.3393 31.3823C36.6874 31.3855 37.0199 31.5228 37.2638 31.7642C37.5076 32.0055 37.6428 32.3311 37.6396 32.6692C37.6363 33.0074 37.4949 33.3304 37.2465 33.5673C36.998 33.8041 36.6629 33.9354 36.3148 33.9323C35.9096 33.9468 35.5266 34.116 35.249 34.4032C34.5718 35.0611 34.7485 35.7207 34.9393 35.906C35.1318 36.0913 35.809 36.263 36.4863 35.6051C37.8583 34.2723 40.2278 33.8303 41.7451 35.3042C42.9228 36.4483 42.9141 38.0904 42.2088 39.3909C42.3823 39.636 42.4622 39.9322 42.4346 40.2284C42.407 40.5246 42.2737 40.802 42.0577 41.0128C41.8418 41.2236 41.5568 41.3545 41.252 41.3827C40.9472 41.4109 40.6419 41.3348 40.3888 41.1674C39.6035 41.5858 38.6926 41.7253 37.8128 41.5618C37.4717 41.4937 37.1723 41.2968 36.9807 41.0143C36.789 40.7319 36.7207 40.387 36.7908 40.0556C36.8609 39.7242 37.0636 39.4335 37.3544 39.2473C37.6452 39.0611 38.0002 38.9947 38.3413 39.0628C38.6511 39.1257 39.1516 39.0271 39.5803 38.6106C40.2576 37.951 40.0808 37.2931 39.8901 37.1078C39.6976 36.9226 39.0203 36.7509 38.3431 37.4087C36.971 38.7415 34.6015 39.1835 33.0843 37.7079ZM31.1138 30.8485C31.4387 30.5327 31.6965 30.1579 31.8723 29.7453C32.0481 29.3328 32.1386 28.8907 32.1385 28.4442C32.1384 27.9977 32.0478 27.5555 31.8718 27.1431C31.6958 26.7306 31.438 26.3558 31.1129 26.0401C30.7878 25.7245 30.4019 25.4741 29.9772 25.3033C29.5525 25.1325 29.0974 25.0446 28.6377 25.0447C28.1781 25.0448 27.723 25.1328 27.2984 25.3038C26.8737 25.4747 26.4879 25.7252 26.163 26.041C25.5067 26.6787 25.1381 27.5436 25.1383 28.4454C25.1384 29.3471 25.5073 30.2119 26.1639 30.8494C26.8204 31.4869 27.7107 31.845 28.639 31.8448C29.5673 31.8446 30.4575 31.4863 31.1138 30.8485Z" fill="#F4313F"/>
<path d="M33.2367 64.0694C50.4457 64.0694 64.3963 50.1187 64.3963 32.9098C64.3963 15.7008 50.4457 1.75018 33.2367 1.75018C16.0278 1.75018 2.07715 15.7008 2.07715 32.9098C2.07715 50.1187 16.0278 64.0694 33.2367 64.0694Z" stroke="#FF717B" stroke-width="2.67082"/>
</svg>
