<svg width="95" height="30" viewBox="0 0 95 30" fill="none" xmlns="http://www.w3.org/2000/svg">
<g clip-path="url(#clip0_436_89)">
<path d="M11.1793 17.515C11.1793 18.8704 10.6411 20.0067 9.56473 20.9037C8.48832 21.8007 7.15278 22.2392 5.53817 22.2392C2.80729 22.2392 0.634543 21.0831 -0.302329 18.9103L2.52822 17.4552C3.06642 18.5914 4.20263 19.2492 5.6179 19.2492C6.99331 19.2492 7.91025 18.5316 7.91025 17.4352C7.91025 16.2592 7.05311 15.6014 5.6179 15.6014H3.96343V12.6113H5.4385C6.81391 12.6113 7.63118 11.8937 7.63118 10.8572C7.63118 9.88046 6.79398 9.16286 5.3787 9.16286C4.20263 9.16286 3.36542 9.74093 2.82722 10.8971L-0.063128 9.52166C0.813944 7.36885 2.88702 6.15291 5.4983 6.15291C7.09298 6.15291 8.38865 6.57151 9.38533 7.38878C10.382 8.20606 10.8803 9.3024 10.8803 10.6379C10.8803 12.0731 10.1627 13.1695 8.74746 13.927V13.9469C10.4817 14.6645 11.1793 15.7808 11.1793 17.515ZM20.3514 11.3157V14.3854C20.1122 14.3456 19.873 14.3256 19.6138 14.3256C17.6006 14.3256 16.7235 15.5814 16.7235 17.495V22H13.6139V11.3555H16.7035V12.9901H16.7235C17.1819 12.0133 18.3182 11.2359 19.7334 11.2359C19.9926 11.2359 20.1919 11.2559 20.3514 11.3157ZM29.6221 22V20.6445H29.5823C28.8846 21.6811 27.7683 22.1993 26.2733 22.1993C24.7783 22.1993 23.5624 21.6611 22.6255 20.5648C21.6886 19.4685 21.2102 18.1528 21.2102 16.6578C21.2102 15.2426 21.6886 13.9668 22.6654 12.8505C23.6421 11.7143 24.858 11.1562 26.3132 11.1562C27.6487 11.1562 28.7052 11.6346 29.5025 12.5715H29.5424V5.77418H32.6321V22H29.6221ZM29.6221 16.6578C29.6221 15.0831 28.4859 13.9668 26.9909 13.9668C25.4959 13.9668 24.3597 15.0831 24.3597 16.6578C24.3597 17.4552 24.6188 18.113 25.1172 18.6312C25.6155 19.1296 26.2534 19.3887 26.9909 19.3887C27.7285 19.3887 28.3663 19.1296 28.8647 18.6312C29.363 18.113 29.6221 17.4552 29.6221 16.6578ZM47.2741 11.3954C47.2741 13.0499 46.7559 14.3256 45.6994 15.2027C44.6629 16.0598 43.2874 16.4984 41.5732 16.4984H39.1214V22H35.8921V6.39211H41.6928C43.3273 6.39211 44.6629 6.83065 45.6994 7.70772C46.7559 8.56486 47.2741 9.80073 47.2741 11.3954ZM44.025 11.4751C44.025 10.0599 42.9087 9.44193 41.4137 9.44193H39.1214V13.4884H41.4336C42.8688 13.4884 44.025 12.8306 44.025 11.4751ZM52.013 22.1993C51.0163 22.1993 50.1592 21.9203 49.4615 21.3422C48.7638 20.7641 48.425 19.9867 48.425 19.0299V18.99C48.425 17.7342 49.0429 16.8173 49.9997 16.3588C50.9765 15.9004 51.9731 15.721 53.1691 15.721H54.2256C54.7837 15.721 55.0628 15.4618 55.0628 14.9436C55.0628 14.206 54.4648 13.628 53.3485 13.628C52.2921 13.628 51.5147 14.1064 50.9765 15.0632L48.6044 13.6479C49.5213 11.9535 51.1559 11.1163 53.4881 11.1163C56.2987 11.1163 58.1126 12.6113 58.1126 15.402V22H55.2422V20.6844L55.2023 20.6645C54.4847 21.6811 53.4283 22.1993 52.013 22.1993ZM52.91 19.9269C54.2455 19.9269 55.0429 19.0499 55.0429 17.8738V17.6346H53.1691C52.2721 17.6346 51.5545 18.0532 51.5545 18.8505C51.5545 19.5681 52.1127 19.9269 52.91 19.9269ZM67.6154 11.3157V14.3854C67.3762 14.3456 67.137 14.3256 66.8779 14.3256C64.8646 14.3256 63.9875 15.5814 63.9875 17.495V22H60.8779V11.3555H63.9676V12.9901H63.9875C64.446 12.0133 65.5822 11.2359 66.9975 11.2359C67.2566 11.2359 67.456 11.2559 67.6154 11.3157ZM75.9238 19.3688V21.9402C75.4653 22.0797 74.9869 22.1395 74.4686 22.1395C71.6979 22.1395 70.2428 20.6246 70.2428 18.1329V14.0466H68.3291V11.3555H70.2826V8.02665H73.3524V11.3555H75.9836V14.0466H73.3524V17.7542C73.3524 18.9701 73.9902 19.4485 75.2062 19.4485C75.4653 19.4485 75.7045 19.4286 75.9238 19.3688ZM81.6286 20.8638L77.1436 11.3555H80.5722L83.2233 17.4352L85.5954 11.3555H88.8047L82.3462 27.2425H79.0174L81.6286 20.8638Z" fill="black"/>
<path d="M92.1999 22.2392C91.6218 22.2392 91.1036 22.0199 90.685 21.6013C90.2664 21.1827 90.0471 20.6645 90.0471 20.0864C90.0471 18.8904 91.0039 17.9136 92.1999 17.9136C93.3959 17.9136 94.3527 18.8904 94.3527 20.0864C94.3527 20.6645 94.1335 21.1827 93.7149 21.6013C93.2962 22.0199 92.7979 22.2392 92.1999 22.2392Z" fill="#F4313F"/>
</g>
<defs>
<clipPath id="clip0_436_89">
<rect width="95" height="30" fill="white"/>
</clipPath>
</defs>
</svg>
